<svg width="750" height="750" viewBox="0 0 750 750" fill="none" xmlns="http://www.w3.org/2000/svg">
<rect width="750" height="750" fill="white"/>
<path d="M643.932 496.832C649.368 496.832 653.764 492.454 653.764 487.054C653.764 481.654 649.368 477.277 643.932 477.277C638.504 477.277 634.103 481.654 634.103 487.054C634.103 492.454 638.504 496.832 643.932 496.832Z" fill="#0B3B2D"/>
<path d="M126.423 533.999C122.05 533.999 118.02 533.319 114.332 531.956C110.697 530.542 107.51 528.551 104.771 525.985C102.084 523.418 99.977 520.405 98.4489 516.948C96.974 513.491 96.2363 509.693 96.2363 505.554C96.2363 501.416 96.974 497.618 98.4489 494.161C99.977 490.703 102.111 487.691 104.85 485.124C107.589 482.557 110.803 480.593 114.491 479.231C118.178 477.816 122.235 477.109 126.66 477.109C131.559 477.109 135.958 477.921 139.857 479.545C143.808 481.169 147.127 483.526 149.814 486.617L141.595 494.161C139.593 492.065 137.407 490.52 135.036 489.525C132.666 488.477 130.085 487.953 127.292 487.953C124.606 487.953 122.156 488.372 119.943 489.21C117.731 490.048 115.807 491.253 114.174 492.825C112.594 494.396 111.356 496.256 110.46 498.404C109.618 500.552 109.196 502.935 109.196 505.554C109.196 508.121 109.618 510.478 110.46 512.626C111.356 514.774 112.594 516.66 114.174 518.284C115.807 519.856 117.704 521.06 119.864 521.899C122.077 522.737 124.5 523.156 127.134 523.156C129.663 523.156 132.113 522.763 134.483 521.977C136.906 521.139 139.251 519.751 141.516 517.812L148.786 527.006C145.784 529.258 142.28 530.987 138.276 532.192C134.325 533.397 130.374 533.999 126.423 533.999ZM137.091 525.356V504.69H148.786V527.006L137.091 525.356ZM156.648 533.057V474.752H168.975V533.057H156.648ZM197.485 533.685C192.954 533.685 188.924 532.742 185.395 530.856C181.918 528.971 179.152 526.404 177.098 523.156C175.095 519.856 174.095 516.11 174.095 511.919C174.095 507.676 175.095 503.931 177.098 500.683C179.152 497.382 181.918 494.816 185.395 492.982C188.924 491.096 192.954 490.153 197.485 490.153C201.963 490.153 205.967 491.096 209.497 492.982C213.027 494.816 215.791 497.356 217.794 500.604C219.797 503.852 220.797 507.624 220.797 511.919C220.797 516.11 219.797 519.856 217.794 523.156C215.791 526.404 213.027 528.971 209.497 530.856C205.967 532.742 201.963 533.685 197.485 533.685ZM197.485 523.627C199.54 523.627 201.384 523.156 203.017 522.213C204.65 521.27 205.941 519.934 206.889 518.205C207.837 516.424 208.311 514.329 208.311 511.919C208.311 509.457 207.837 507.362 206.889 505.633C205.941 503.904 204.65 502.568 203.017 501.625C201.384 500.682 199.54 500.211 197.485 500.211C195.431 500.211 193.587 500.682 191.954 501.625C190.321 502.568 189.004 503.904 188.003 505.633C187.054 507.362 186.58 509.457 186.58 511.919C186.58 514.329 187.054 516.424 188.003 518.205C189.004 519.934 190.321 521.27 191.954 522.213C193.587 523.156 195.431 523.627 197.485 523.627ZM251.007 533.685C247.264 533.685 244.052 532.899 241.366 531.328C238.677 529.756 236.624 527.372 235.201 524.177C233.779 520.929 233.067 516.843 233.067 511.919C233.067 506.942 233.803 502.856 235.279 499.661C236.806 496.466 238.914 494.082 241.603 492.51C244.288 490.939 247.423 490.153 251.007 490.153C255.01 490.153 258.591 491.044 261.752 492.825C264.965 494.606 267.495 497.12 269.339 500.368C271.234 503.616 272.183 507.467 272.183 511.919C272.183 516.319 271.234 520.143 269.339 523.391C267.495 526.639 264.965 529.18 261.752 531.014C258.591 532.794 255.01 533.685 251.007 533.685ZM225.875 533.057V474.752H238.204V499.347L237.414 511.84L237.651 524.413V533.057H225.875ZM248.872 523.627C250.926 523.627 252.743 523.156 254.324 522.213C255.959 521.27 257.249 519.934 258.196 518.205C259.198 516.424 259.698 514.329 259.698 511.919C259.698 509.457 259.198 507.362 258.196 505.633C257.249 503.904 255.959 502.568 254.324 501.625C252.743 500.682 250.926 500.211 248.872 500.211C246.818 500.211 244.974 500.682 243.339 501.625C241.707 502.568 240.417 503.904 239.468 505.633C238.519 507.362 238.046 509.457 238.046 511.919C238.046 514.329 238.519 516.424 239.468 518.205C240.417 519.934 241.707 521.27 243.339 522.213C244.974 523.156 246.818 523.627 248.872 523.627ZM302.657 533.057V524.806L301.866 522.999V508.226C301.866 505.606 301.052 503.563 299.417 502.097C297.837 500.63 295.387 499.897 292.07 499.897C289.803 499.897 287.564 500.263 285.351 500.997C283.193 501.678 281.348 502.621 279.821 503.826L275.396 495.261C277.714 493.637 280.504 492.38 283.771 491.489C287.037 490.599 290.357 490.153 293.729 490.153C300.208 490.153 305.24 491.673 308.821 494.711C312.405 497.749 314.196 502.49 314.196 508.933V533.057H302.657ZM289.699 533.685C286.378 533.685 283.534 533.135 281.163 532.035C278.794 530.883 276.977 529.337 275.711 527.399C274.447 525.461 273.815 523.286 273.815 520.877C273.815 518.362 274.42 516.162 275.633 514.276C276.896 512.391 278.872 510.924 281.558 509.876C284.246 508.776 287.75 508.226 292.07 508.226H303.369V515.377H293.411C290.513 515.377 288.513 515.848 287.405 516.791C286.352 517.734 285.827 518.913 285.827 520.327C285.827 521.899 286.432 523.156 287.645 524.099C288.908 524.989 290.621 525.434 292.78 525.434C294.834 525.434 296.678 524.963 298.312 524.02C299.944 523.025 301.13 521.584 301.866 519.698L303.765 525.356C302.869 528.08 301.235 530.149 298.866 531.563C296.495 532.978 293.438 533.685 289.699 533.685ZM322.191 533.057V474.752H334.518V533.057H322.191ZM343.669 533.057V478.052H354.256L386.894 517.655H381.756V478.052H394.4V533.057H383.891L351.175 493.453H356.313V533.057H343.669ZM423.688 533.685C419.155 533.685 415.125 532.742 411.598 530.856C408.122 528.971 405.355 526.404 403.301 523.156C401.296 519.856 400.298 516.11 400.298 511.919C400.298 507.676 401.296 503.931 403.301 500.683C405.355 497.382 408.122 494.816 411.598 492.982C415.125 491.096 419.155 490.153 423.688 490.153C428.164 490.153 432.172 491.096 435.7 492.982C439.227 494.816 441.993 497.356 443.996 500.604C445.999 503.852 446.999 507.624 446.999 511.919C446.999 516.11 445.999 519.856 443.996 523.156C441.993 526.404 439.227 528.971 435.7 530.856C432.172 532.742 428.164 533.685 423.688 533.685ZM423.688 523.627C425.742 523.627 427.589 523.156 429.22 522.213C430.85 521.27 432.143 519.934 433.092 518.205C434.041 516.424 434.514 514.329 434.514 511.919C434.514 509.457 434.041 507.362 433.092 505.633C432.143 503.904 430.85 502.568 429.22 501.625C427.589 500.682 425.742 500.211 423.688 500.211C421.634 500.211 419.787 500.682 418.155 501.625C416.526 502.568 415.206 503.904 414.206 505.633C413.257 507.362 412.783 509.457 412.783 511.919C412.783 514.329 413.257 516.424 414.206 518.205C415.206 519.934 416.526 521.27 418.155 522.213C419.787 523.156 421.634 523.627 423.688 523.627ZM506.526 490.153C509.898 490.153 512.871 490.834 515.457 492.196C518.087 493.506 520.141 495.549 521.619 498.325C523.144 501.049 523.913 504.559 523.913 508.854V533.057H511.583V510.74C511.583 507.335 510.874 504.821 509.451 503.197C508.029 501.573 506.024 500.761 503.445 500.761C501.65 500.761 500.047 501.181 498.625 502.018C497.203 502.804 496.095 504.009 495.305 505.633C494.514 507.257 494.119 509.326 494.119 511.84V533.057H481.793V510.74C481.793 507.335 481.08 504.821 479.658 503.197C478.287 501.573 476.311 500.761 473.733 500.761C471.937 500.761 470.335 501.181 468.913 502.018C467.49 502.804 466.383 504.009 465.592 505.633C464.802 507.257 464.407 509.326 464.407 511.84V533.057H452.08V490.782H463.856V502.333L461.643 498.954C463.116 496.073 465.197 493.899 467.886 492.432C470.622 490.913 473.733 490.153 477.209 490.153C481.105 490.153 484.503 491.148 487.404 493.139C490.35 495.077 492.302 498.063 493.251 502.097L488.904 500.918C490.326 497.618 492.592 494.999 495.7 493.061C498.862 491.122 502.47 490.153 506.526 490.153ZM557.878 533.057V524.806L557.088 522.999V508.226C557.088 505.606 556.271 503.563 554.639 502.097C553.058 500.63 550.609 499.897 547.289 499.897C545.019 499.897 542.785 500.263 540.573 500.997C538.411 501.678 536.564 502.621 535.04 503.826L530.615 495.261C532.93 493.637 535.723 492.38 538.992 491.489C542.253 490.599 545.573 490.153 548.947 490.153C555.429 490.153 560.456 491.673 564.04 494.711C567.621 497.749 569.414 502.49 569.414 508.933V533.057H557.878ZM544.917 533.685C541.6 533.685 538.755 533.135 536.384 532.035C534.013 530.883 532.196 529.337 530.932 527.399C529.666 525.461 529.034 523.286 529.034 520.877C529.034 518.362 529.639 516.162 530.851 514.276C532.115 512.391 534.091 510.924 536.779 509.876C539.465 508.776 542.965 508.226 547.289 508.226H558.588V515.377H548.633C545.732 515.377 543.732 515.848 542.627 516.791C541.57 517.734 541.046 518.913 541.046 520.327C541.046 521.899 541.651 523.156 542.863 524.099C544.127 524.989 545.839 525.434 548.001 525.434C550.055 525.434 551.894 524.963 553.531 524.02C555.163 523.025 556.349 521.584 557.088 519.698L558.983 525.356C558.088 528.08 556.456 530.149 554.085 531.563C551.714 532.978 548.654 533.685 544.917 533.685ZM595.971 533.685C591.968 533.685 588.362 532.794 585.144 531.014C581.934 529.18 579.378 526.639 577.48 523.391C575.638 520.143 574.713 516.319 574.713 511.919C574.713 507.467 575.638 503.616 577.48 500.368C579.378 497.12 581.934 494.606 585.144 492.825C588.362 491.044 591.968 490.153 595.971 490.153C599.554 490.153 602.689 490.939 605.375 492.51C608.061 494.082 610.144 496.466 611.617 499.661C613.096 502.856 613.83 506.942 613.83 511.919C613.83 516.843 613.12 520.929 611.695 524.177C610.273 527.372 608.219 529.756 605.533 531.328C602.901 532.899 599.713 533.685 595.971 533.685ZM598.105 523.627C600.108 523.627 601.926 523.156 603.557 522.213C605.195 521.27 606.482 519.934 607.429 518.205C608.434 516.424 608.932 514.329 608.932 511.919C608.932 509.457 608.434 507.362 607.429 505.633C606.482 503.904 605.195 502.568 603.557 501.625C601.926 500.682 600.108 500.211 598.105 500.211C596.051 500.211 594.21 500.682 592.573 501.625C590.941 502.568 589.626 503.904 588.623 505.633C587.674 507.362 587.201 509.457 587.201 511.919C587.201 514.329 587.674 516.424 588.623 518.205C589.626 519.934 590.941 521.27 592.573 522.213C594.21 523.156 596.051 523.627 598.105 523.627ZM609.246 533.057V524.413L609.483 511.84L608.695 499.347V474.752H621.022V533.057H609.246Z" fill="#0B3B2D"/>
<path fill-rule="evenodd" clip-rule="evenodd" d="M375.478 216C433.102 216 479.816 262.556 479.816 319.985C479.816 377.414 433.102 423.97 375.478 423.97C317.853 423.97 271.139 377.414 271.139 319.985C271.139 262.556 317.853 216 375.478 216ZM371.706 223.781C359.804 225.451 348.469 234.983 339.671 250.925C337.119 255.55 334.816 260.659 332.809 266.175C344.773 263.179 357.914 261.412 371.706 261.139V223.781ZM323.991 268.673C326.486 260.867 329.539 253.686 333.062 247.303C337.424 239.4 342.6 232.575 348.431 227.333C316.718 236.512 291.721 261.425 282.511 293.031C287.77 287.218 294.618 282.06 302.549 277.713C308.954 274.202 316.159 271.159 323.991 268.673ZM321.485 277.461C318.478 289.384 316.706 302.481 316.432 316.226H278.947C280.622 304.363 290.187 293.068 306.183 284.3C310.823 281.756 315.95 279.461 321.485 277.461ZM323.976 316.226C324.288 301.226 326.454 287.143 330.039 274.701C342.525 271.128 356.656 268.968 371.706 268.658V284.895C366.091 299.22 354.639 310.633 340.264 316.226H323.976ZM316.432 323.744H278.947C280.622 335.607 290.187 346.902 306.183 355.67C310.823 358.214 315.95 360.509 321.485 362.509C318.478 350.586 316.706 337.489 316.432 323.744ZM330.039 365.27C326.454 352.827 324.288 338.744 323.976 323.744H340.264C354.639 329.337 366.092 340.75 371.706 355.076V371.313C356.656 371.003 342.525 368.842 330.039 365.27ZM323.991 371.298C316.159 368.811 308.954 365.768 302.549 362.258C294.618 357.911 287.77 352.752 282.511 346.939C291.721 378.545 316.718 403.458 348.431 412.637C342.6 407.395 337.424 400.57 333.062 392.667C329.539 386.284 326.486 379.103 323.991 371.298ZM371.706 416.189C359.804 414.52 348.469 404.987 339.671 389.045C337.119 384.421 334.816 379.311 332.809 373.795C344.773 376.791 357.914 378.557 371.706 378.831V416.189ZM402.524 412.637C408.355 407.395 413.533 400.57 417.894 392.667C421.416 386.284 424.469 379.103 426.965 371.298C434.797 368.811 442.002 365.768 448.407 362.258C456.337 357.911 463.185 352.752 468.444 346.939C459.234 378.545 434.237 403.458 402.524 412.637ZM418.147 373.795C416.139 379.311 413.837 384.421 411.284 389.045C402.487 404.987 391.152 414.52 379.249 416.189V378.831C393.041 378.557 406.183 376.791 418.147 373.795ZM429.471 362.509C435.005 360.509 440.132 358.214 444.772 355.67C460.769 346.902 470.334 335.607 472.008 323.744H434.524C434.249 337.489 432.477 350.586 429.471 362.509ZM426.98 323.744C426.669 338.744 424.501 352.827 420.916 365.27C408.431 368.842 394.3 371.003 379.249 371.313V355.088C384.862 340.757 396.317 329.339 410.696 323.744H426.98ZM434.524 316.226H472.008C470.334 304.363 460.769 293.068 444.772 284.3C440.132 281.756 435.005 279.461 429.471 277.461C432.477 289.384 434.249 302.481 434.524 316.226ZM420.916 274.701C424.501 287.143 426.669 301.226 426.98 316.226H410.696C396.317 310.631 384.862 299.214 379.249 284.883V268.658C394.3 268.968 408.431 271.128 420.916 274.701ZM426.965 268.673C434.797 271.159 442.002 274.202 448.407 277.713C456.337 282.06 463.185 287.218 468.444 293.031C459.234 261.425 434.237 236.512 402.524 227.333C408.355 232.575 413.533 239.4 417.894 247.303C421.416 253.686 424.469 260.867 426.965 268.673ZM379.249 223.781C391.152 225.451 402.487 234.983 411.284 250.925C413.837 255.55 416.139 260.659 418.147 266.175C406.183 263.179 393.041 261.412 379.249 261.139V223.781Z" fill="#0B3B2D"/>
</svg>
