<svg width="150" height="150" viewBox="0 0 150 150" fill="none" xmlns="http://www.w3.org/2000/svg">
<g clip-path="url(#clip0_9759_9814)">
<rect width="150" height="150" fill="white"/>
<path d="M60.1078 80.2067C60.1078 81.1469 59.9279 82.0343 59.5679 82.8688C59.2186 83.6928 58.7316 84.4165 58.107 85.0397C57.493 85.6524 56.7679 86.1384 55.9315 86.4976C55.1058 86.8462 54.2218 87.0205 53.2797 87.0205C52.4328 87.0205 51.6176 86.8726 50.8342 86.5768C50.0614 86.281 49.3627 85.8479 48.7381 85.2774C48.1135 85.8479 47.4095 86.281 46.6262 86.5768C45.8428 86.8726 45.0276 87.0205 44.1807 87.0205C43.2385 87.0205 42.3493 86.8462 41.513 86.4976C40.6872 86.1384 39.9621 85.6524 39.3375 85.0397C38.7235 84.4165 38.2365 83.6928 37.8766 82.8688C37.5272 82.0343 37.3525 81.1469 37.3525 80.2067V63.9805H41.91V80.2067C41.91 80.5236 41.9682 80.8247 42.0846 81.1099C42.2011 81.3846 42.3599 81.6276 42.561 81.8388C42.7727 82.0396 43.0162 82.198 43.2915 82.3142C43.5667 82.4304 43.8631 82.4885 44.1807 82.4885C44.4983 82.4885 44.7947 82.4304 45.07 82.3142C45.3452 82.198 45.5834 82.0396 45.7845 81.8388C45.9963 81.6276 46.1604 81.3846 46.2768 81.1099C46.3933 80.8247 46.4515 80.5236 46.4515 80.2067V63.9805H51.0089V80.2067C51.0089 80.5236 51.0671 80.8247 51.1836 81.1099C51.3 81.3846 51.4588 81.6276 51.66 81.8388C51.8717 82.0396 52.1152 82.198 52.3904 82.3142C52.6657 82.4304 52.9621 82.4885 53.2797 82.4885C53.5973 82.4885 53.8937 82.4304 54.1689 82.3142C54.4442 82.198 54.6824 82.0396 54.8835 81.8388C55.0952 81.6276 55.2593 81.3846 55.3758 81.1099C55.5028 80.8247 55.5663 80.5236 55.5663 80.2067V63.9805H60.1078V80.2067Z" fill="url(#paint0_linear_9759_9814)"/>
<path d="M69.6088 63.9805H64.7158V87.0205H69.6088V63.9805Z" fill="url(#paint1_linear_9759_9814)"/>
<path d="M92.4306 86.8618H87.5556L78.7742 71.9032V86.8618H74.2168V64.1387H79.0918L87.8732 79.1131V64.1387H92.4306V86.8618Z" fill="url(#paint2_linear_9759_9814)"/>
<path d="M112.648 86.8618H97.0381V64.1387H112.648V68.6865H101.595V73.2342H109.075V77.782H101.595V82.314H112.648V86.8618Z" fill="url(#paint3_linear_9759_9814)"/>
</g>
<defs>
<linearGradient id="paint0_linear_9759_9814" x1="37.4002" y1="64.3004" x2="180.2" y2="105.5" gradientUnits="userSpaceOnUse">
<stop stop-color="#6A42DB"/>
<stop offset="1" stop-color="#D842DB"/>
</linearGradient>
<linearGradient id="paint1_linear_9759_9814" x1="36.2002" y1="64.3004" x2="215" y2="114.7" gradientUnits="userSpaceOnUse">
<stop stop-color="#6A42DB"/>
<stop offset="1" stop-color="#D842DB"/>
</linearGradient>
<linearGradient id="paint2_linear_9759_9814" x1="37.8004" y1="64.3" x2="181" y2="106.3" gradientUnits="userSpaceOnUse">
<stop stop-color="#6A42DB"/>
<stop offset="1" stop-color="#D842DB"/>
</linearGradient>
<linearGradient id="paint3_linear_9759_9814" x1="61.7998" y1="61.9" x2="162.2" y2="95.1" gradientUnits="userSpaceOnUse">
<stop stop-color="#6A42DB"/>
<stop offset="1" stop-color="#D842DB"/>
</linearGradient>
<clipPath id="clip0_9759_9814">
<rect width="150" height="150" fill="white"/>
</clipPath>
</defs>
</svg>
